<svg version="1.0" xmlns="http://www.w3.org/2000/svg" width="133.333" height="133.333" viewBox="0 0 100 100"><path d="M47.2 9.8c-5.2 9.9-9 20.8-9.8 28.2-.9 8.5-.5 8.2-7.8 5.5-3.5-1.3-8.6-2.7-11.4-3.1-4.4-.5-5.1-.4-5.4 1.2-.5 2.6 1.1 11.3 2.7 14.4 2.3 4.6 2.7 7 1.3 7C14.7 63 6 68.8 6 70.2c0 .6 2.3 3.3 5 5.9 7.8 7.3 18.6 11.1 36.8 13.1 2 .3 1.5.8-3 3.8-2.9 1.9-6 3.8-6.8 4.2-.8.4-1 .7-.4.7.5.1 5-1.5 10-3.5 4.9-2 15.6-6 23.9-8.9l15-5.3 3.2-7.8c1.8-4.4 3.2-8.5 3.3-9.1 0-.7-3.7 1.1-8.2 4-4.6 2.9-8.8 5.6-9.4 6-.6.4 0-2.1 1.3-5.4 2.8-6.8 3.2-15.1 1.4-23.2C75.6 34 67 19.2 56.3 7.1l-4.8-5.3-4.3 8z"/></svg>